<?xml version="1.0" standalone="no"?>
<!DOCTYPE svg PUBLIC "-//W3C//DTD SVG 20010904//EN"
 "http://www.w3.org/TR/2001/REC-SVG-20010904/DTD/svg10.dtd">
<svg version="1.0" xmlns="http://www.w3.org/2000/svg"
 width="1000.000000pt" height="600.000000pt" viewBox="0 0 1000.000000 600.000000"
 preserveAspectRatio="xMidYMid meet" style="background-color:#42f5dd">

<g transform="translate(0.000000,612.000000) scale(0.100000,-0.100000)"
fill="green">
<path d="M2462 4418 c-28 -24 -73 -75 -100 -113 -27 -39 -83 -106 -124 -150
-105 -113 -226 -275 -234 -312 -8 -41 16 -81 95 -156 66 -63 167 -117 219
-117 37 0 45 7 127 113 33 42 67 77 76 77 8 0 26 -12 40 -26 13 -15 48 -44 77
-66 29 -21 92 -73 140 -115 83 -72 262 -224 457 -389 50 -42 116 -98 147 -125
75 -65 94 -64 147 4 22 30 41 64 41 77 0 32 -205 233 -285 280 -33 19 -103 74
-155 123 -52 50 -179 157 -282 240 -106 84 -188 157 -188 166 0 9 39 60 85
114 47 53 87 108 91 121 9 37 -23 92 -75 130 -25 19 -57 46 -71 61 -31 34
-119 92 -152 100 -19 5 -36 -3 -76 -37z m116 -32 c35 -19 191 -155 209 -182
12 -19 9 -26 -28 -77 l-42 -57 -41 33 c-23 19 -77 57 -121 85 -44 28 -93 64
-108 80 -34 35 -29 50 28 101 39 34 63 38 103 17z m-179 -451 c0 -136 0 -139
-18 -118 -15 18 -19 49 -24 204 -6 164 -5 185 10 208 18 26 18 26 24 -64 4
-49 7 -153 8 -230z m74 77 c9 -150 8 -186 -3 -207 -7 -14 -16 -25 -20 -25 -4
0 -10 78 -14 173 -3 94 -9 197 -12 227 l-6 55 22 -21 c20 -20 23 -37 33 -202z
m-155 -77 c1 -78 1 -80 -17 -58 -27 33 -37 228 -13 263 17 25 17 25 23 -50 4
-41 7 -111 7 -155z m211 208 c20 -17 22 -26 19 -132 -4 -150 -22 -161 -31 -19
-4 57 -11 118 -16 136 -11 36 -3 40 28 15z m103 -59 c21 -15 38 -31 38 -36 0
-8 -72 -109 -76 -105 -5 7 -11 167 -6 167 3 0 23 -12 44 -26z m-392 -84 c0
-40 -4 -70 -10 -70 -11 0 -14 123 -3 133 12 13 13 7 13 -63z m33 -170 c68 -59
117 -109 117 -120 0 -20 -73 -90 -94 -90 -19 0 -240 187 -244 206 -2 9 12 40
32 70 30 45 40 53 54 45 9 -5 70 -55 135 -111z m504 -74 l73 -60 -37 -38 c-20
-21 -40 -38 -43 -38 -5 0 -44 31 -129 102 l-30 26 36 40 c20 23 41 38 47 35 6
-4 44 -34 83 -67z m135 -157 c4 -30 10 -67 13 -83 4 -26 3 -27 -12 -15 -20 17
-52 87 -53 115 0 23 19 46 35 41 5 -2 13 -28 17 -58z m68 -19 c6 -11 15 -43
20 -72 6 -29 13 -61 16 -70 8 -26 -13 -22 -30 5 -15 22 -34 157 -23 157 4 0
11 -9 17 -20z m94 -87 c8 -16 19 -48 26 -73 6 -25 14 -54 17 -65 5 -18 4 -18
-11 -6 -26 21 -43 60 -54 119 -10 57 -1 68 22 25z m116 -87 c10 -13 10 -19 0
-31 -7 -8 -16 -15 -20 -15 -8 0 -30 54 -30 72 0 11 33 -6 50 -26z m143 -119
c40 -34 91 -78 115 -96 23 -19 42 -41 42 -50 -1 -9 -14 -31 -29 -49 l-28 -33
-104 82 c-57 46 -114 93 -127 106 l-23 23 27 40 c15 22 33 40 41 40 7 0 46
-28 86 -63z"/>
<path d="M5137 4109 c-78 -18 -143 -73 -175 -148 -23 -55 -20 -167 5 -216 39
-75 118 -124 214 -132 49 -5 64 -2 108 22 94 51 95 83 3 52 -57 -18 -62 -18
-118 -2 -99 29 -154 107 -154 216 1 136 113 197 248 134 l52 -24 17 25 c22 35
8 56 -48 71 -52 14 -100 14 -152 2z"/>
<path d="M8062 4110 c-56 -12 -103 -41 -145 -91 -83 -96 -76 -250 14 -336 44
-42 96 -63 172 -70 51 -4 73 -1 122 19 l60 24 -3 61 c-3 55 -1 62 22 81 14 11
26 23 26 26 0 3 -45 6 -99 6 -97 0 -135 -11 -89 -25 42 -13 58 -36 58 -81 0
-33 -5 -46 -22 -58 -65 -46 -194 28 -229 131 -21 60 -18 152 6 193 40 68 144
90 234 50 54 -25 68 -25 81 -1 16 31 12 47 -15 59 -35 16 -142 23 -193 12z"/>
<path d="M3975 4098 c-9 -32 -15 -88 -9 -88 4 0 18 10 31 22 17 16 39 23 83
26 l60 4 0 -195 c0 -208 0 -209 -53 -222 -59 -15 -21 -25 98 -25 119 0 160 11
96 25 -16 3 -35 12 -41 19 -7 9 -10 77 -8 202 l3 189 59 0 c50 -1 61 -4 74
-23 20 -31 29 -28 36 14 4 19 10 42 13 50 4 12 -28 14 -216 14 -169 0 -223 -3
-226 -12z"/>
<path d="M4474 4098 c-3 -4 6 -12 18 -19 13 -7 26 -17 30 -23 4 -6 8 -96 8
-199 l0 -188 -35 -15 c-67 -28 -40 -34 150 -34 183 0 185 0 200 24 9 13 20 38
25 55 10 38 -7 42 -36 10 -28 -32 -76 -49 -137 -49 -37 0 -59 5 -68 16 -15 18
-24 112 -15 150 7 25 10 26 52 21 25 -2 53 -12 63 -21 25 -23 28 -21 51 30 27
61 25 67 -9 49 -16 -8 -54 -18 -84 -21 -50 -6 -56 -5 -67 16 -7 14 -10 47 -8
83 6 76 22 90 97 84 44 -3 58 -9 76 -30 11 -15 24 -27 27 -27 10 0 31 81 23
88 -9 9 -356 9 -361 0z"/>
<path d="M5430 4097 c0 -7 10 -17 23 -22 22 -10 22 -13 25 -208 l2 -197 -30
-18 c-16 -10 -27 -22 -23 -25 8 -9 188 -9 196 0 4 3 -7 15 -23 25 -31 18 -31
18 -28 101 l3 82 95 3 c140 4 140 4 140 -73 0 -76 -11 -110 -39 -118 -12 -3
-21 -10 -21 -16 0 -7 34 -11 100 -11 55 0 100 3 100 8 0 4 -14 15 -30 24 l-30
17 0 190 c0 159 3 192 16 205 8 9 22 16 31 16 8 0 13 6 11 13 -3 8 -35 13
-101 15 -82 2 -97 0 -97 -13 0 -8 7 -15 15 -15 30 0 46 -44 43 -121 l-3 -74
-118 -3 -118 -3 3 93 c3 90 4 93 31 106 46 22 21 32 -79 32 -69 0 -94 -3 -94
-13z"/>
<path d="M6165 4100 c-3 -5 2 -22 12 -37 15 -23 19 -54 21 -200 l4 -173 -31
-29 c-17 -16 -31 -32 -31 -35 0 -3 38 -6 85 -6 86 0 109 11 61 30 -14 5 -30
18 -35 29 -13 23 -15 281 -3 281 5 0 37 -30 72 -67 176 -187 273 -284 283
-280 6 2 9 77 8 216 -2 189 0 215 15 232 9 10 23 19 31 19 7 0 13 7 13 15 0
12 -16 15 -84 15 -81 0 -118 -13 -79 -27 50 -17 53 -28 53 -177 l0 -141 -82
85 c-45 47 -120 124 -167 173 -66 69 -90 87 -112 87 -15 0 -31 -4 -34 -10z"/>
<path d="M6725 4100 c-3 -6 5 -14 19 -20 32 -12 35 -24 38 -201 3 -138 5 -148
30 -186 34 -51 86 -76 168 -81 78 -4 118 14 164 71 l31 39 3 161 c4 167 11
197 49 197 8 0 13 6 11 13 -3 8 -29 12 -83 12 -83 0 -106 -13 -55 -32 l30 -11
0 -157 c0 -175 -8 -203 -63 -231 -41 -22 -108 -22 -141 -1 -50 33 -57 63 -54
234 3 153 4 158 26 168 12 5 22 15 22 22 0 16 -185 18 -195 3z"/>
<path d="M7300 4094 c0 -7 9 -14 20 -17 11 -3 24 -17 30 -32 13 -34 13 -326 0
-360 -6 -15 -22 -30 -40 -36 -66 -23 -29 -31 138 -27 168 3 169 3 218 33 69
43 105 106 112 193 5 83 -8 130 -52 180 -56 64 -100 76 -273 77 -108 0 -153
-3 -153 -11z m286 -43 c116 -53 156 -268 66 -354 -41 -39 -124 -55 -174 -34
l-38 16 0 183 c0 130 4 188 12 196 18 18 87 14 134 -7z"/>
<path d="M8400 4094 c0 -7 9 -14 20 -17 32 -8 40 -50 40 -220 0 -176 -6 -199
-55 -211 -14 -4 -25 -11 -25 -16 0 -7 67 -9 186 -8 186 3 187 3 205 28 27 37
35 80 16 80 -9 0 -20 -7 -24 -15 -26 -46 -183 -76 -212 -41 -8 9 -11 43 -9 93
3 77 3 78 31 81 16 2 46 -5 68 -16 l40 -20 25 50 c14 28 24 52 21 54 -2 2 -18
-3 -35 -11 -17 -9 -57 -17 -89 -18 l-58 -2 -3 82 c-3 75 -1 83 19 94 13 6 43
9 72 6 40 -3 56 -11 75 -32 28 -33 38 -26 47 30 l7 41 -181 -1 c-128 0 -181
-3 -181 -11z"/>
<path d="M1950 3329 c-47 -4 -121 -4 -166 -2 -109 8 -117 2 -129 -89 l-10 -73
-92 0 c-110 0 -123 -9 -131 -84 -8 -82 4 -120 41 -135 41 -17 919 -39 1422
-36 107 1 119 13 123 130 1 51 -1 97 -6 102 -4 4 -53 13 -109 20 l-101 12 -4
63 c-2 40 -10 69 -20 79 -14 14 -62 16 -374 18 -198 1 -397 -1 -444 -5z m778
-38 c9 -5 12 -25 10 -61 l-3 -54 -175 -2 c-96 -2 -254 -7 -350 -12 -96 -5
-244 -9 -329 -8 -137 2 -155 5 -167 21 -15 20 -19 83 -6 101 5 8 138 11 451
10 244 -1 464 1 490 5 25 3 51 7 56 8 6 0 16 -3 23 -8z m72 -180 c36 -6 86
-11 113 -11 51 0 51 0 47 -70 -3 -55 -8 -64 -26 -49 -10 8 -22 9 -41 1 -47
-18 -576 -24 -988 -12 -214 6 -401 14 -415 18 -20 6 -26 15 -28 46 -2 22 -1
49 2 60 5 21 8 22 243 20 386 -4 494 -3 568 5 98 10 447 5 525 -8z"/>
<path d="M3960 3165 l0 -85 46 0 c50 0 59 22 11 28 -26 3 -27 5 -27 73 0 55
-3 69 -15 69 -12 0 -15 -16 -15 -85z"/>
<path d="M4220 3165 l0 -85 50 0 c38 0 50 4 50 15 0 11 -11 15 -36 15 -28 0
-35 3 -32 18 2 10 14 18 31 20 38 5 36 32 -4 32 -44 0 -37 34 9 38 20 2 32 9
32 18 0 10 -13 14 -50 14 l-50 0 0 -85z"/>
<path d="M4490 3235 c0 -8 9 -15 20 -15 18 0 20 -7 20 -70 0 -56 3 -70 15 -70
12 0 15 14 15 70 0 63 2 70 20 70 11 0 20 7 20 15 0 12 -13 15 -55 15 -42 0
-55 -3 -55 -15z"/>
<path d="M4786 3234 c-33 -32 -18 -63 39 -81 19 -6 30 -16 30 -29 0 -24 -28
-30 -48 -9 -20 19 -37 19 -37 -1 0 -24 64 -46 94 -33 48 22 40 69 -16 95 -23
11 -41 24 -42 29 -2 15 46 18 55 3 7 -10 10 -11 21 0 11 11 9 16 -6 28 -26 19
-71 18 -90 -2z"/>
<path d="M5290 3165 l0 -85 40 0 c29 0 40 4 40 15 0 9 -9 15 -25 15 -24 0 -25
2 -25 70 0 56 -3 70 -15 70 -12 0 -15 -16 -15 -85z"/>
<path d="M5550 3165 l0 -85 51 0 c57 0 66 23 11 28 -24 2 -32 8 -32 23 0 14 7
19 30 19 20 0 30 5 30 15 0 10 -10 15 -30 15 -23 0 -30 4 -30 20 0 16 7 20 35
20 24 0 35 5 35 15 0 11 -12 15 -50 15 l-50 0 0 -85z"/>
<path d="M5876 3241 c-7 -11 -56 -147 -56 -155 0 -13 28 -5 34 9 3 10 19 15
46 15 29 0 40 -4 40 -15 0 -8 9 -15 20 -15 19 0 18 4 -10 81 -17 44 -30 82
-30 85 0 8 -39 4 -44 -5z m39 -73 c6 -25 5 -28 -19 -28 -30 0 -29 -2 -15 39
12 35 24 31 34 -11z"/>
<path d="M6160 3165 c0 -69 3 -85 15 -85 10 0 15 11 15 35 0 19 3 35 8 35 4 0
16 -16 26 -35 12 -21 27 -35 38 -35 19 0 19 1 -2 35 -21 33 -21 37 -6 54 35
39 7 81 -55 81 l-39 0 0 -85z m75 35 c0 -8 -10 -16 -22 -18 -18 -3 -23 2 -23
18 0 16 5 21 23 18 12 -2 22 -10 22 -18z"/>
<path d="M6460 3165 c0 -68 3 -85 15 -85 10 0 15 16 17 62 l3 62 38 -62 c26
-42 45 -62 58 -62 17 0 19 8 19 85 0 68 -3 85 -15 85 -10 0 -15 -16 -17 -62
l-3 -62 -38 62 c-26 42 -45 62 -58 62 -17 0 -19 -8 -19 -85z"/>
<path d="M7010 3165 l0 -85 45 0 c33 0 45 4 45 15 0 9 -9 15 -25 15 -24 0 -25
2 -25 70 0 63 -2 70 -20 70 -18 0 -20 -7 -20 -85z"/>
<path d="M7292 3168 c-19 -52 -26 -84 -19 -87 5 -2 16 4 22 13 16 21 83 22 91
1 4 -8 13 -15 21 -15 16 0 15 6 -22 105 -16 43 -29 61 -43 63 -17 3 -25 -10
-50 -80z m67 11 c14 -41 15 -39 -14 -39 -26 0 -29 9 -19 48 9 31 20 28 33 -9z"/>
<path d="M7605 3168 c20 -74 24 -83 46 -83 19 0 25 8 36 44 7 24 14 46 17 48
2 2 12 -18 21 -46 13 -41 21 -51 38 -51 19 0 25 11 44 83 11 45 19 84 17 86
-13 14 -34 -16 -45 -63 -7 -31 -15 -56 -19 -56 -4 0 -14 27 -23 60 -23 80 -40
78 -63 -6 -19 -71 -24 -69 -44 14 -9 38 -17 52 -29 52 -17 0 -16 -6 4 -82z"/>
</g>
</svg>
